<svg xmlns="http://www.w3.org/2000/svg" width="800" height="800" class="icon" version="1.1" viewBox="0 0 1024 1024"><path fill="#1B9BDB" d="M117 608.4v178.5c1.5 93.7 155.7 169.5 395 169.5s393.4-75.8 395-169.5V608.4H117z"/><path fill="#FFF" d="M907 607.7c0 99.4-154.8 180-395 180s-395-80.6-395-180 154.8-180 395-180 395 80.5 395 180z"/><path fill="#1B9BDB" d="M117 428.4v158.5c1.5 93.7 155.7 179.5 395 179.5s393.4-85.8 395-179.5V428.4H117z"/><path fill="#FFF" d="M907 427.7c0 99.4-154.8 180-395 180s-395-80.6-395-180 154.8-180 395-180 395 80.5 395 180z"/><path fill="#1B9BDB" d="M117 248.4v158.5c1.5 93.7 155.7 179.5 395 179.5s393.4-85.8 395-179.5V248.4H117z"/><path fill="#3ED6FF" d="M907 247.7c0 99.4-154.8 180-395 180s-395-80.6-395-180 154.8-180 395-180 395 80.5 395 180z"/></svg>